<svg xmlns="http://www.w3.org/2000/svg" viewBox="0 0 24 24"><title>Camera Streaming</title><g id="Camera_Streaming" data-name="Camera Streaming"><path d="M21.65,3c-1.45,0-1.86.91-3.73,3.24A4,4,0,0,0,14,3H4A4,4,0,0,0,0,7V17a4,4,0,0,0,4,4H14a4,4,0,0,0,3.92-3.24l1.89,2.36A2.36,2.36,0,0,0,24,18.65V5.35A2.35,2.35,0,0,0,21.65,3ZM16,17a2,2,0,0,1-2,2H4a2,2,0,0,1-2-2V7A2,2,0,0,1,4,5H14a2,2,0,0,1,2,2Zm6,1.65a.36.36,0,0,1-.62.22L18,14.65V9.35l3.38-4.22a.36.36,0,0,1,.62.22Z"/><path d="M9,9a3,3,0,1,0,3,3A3,3,0,0,0,9,9Zm0,4a1,1,0,0,1,0-2A1,1,0,0,1,9,13Z"/><path d="M6.21,9.21A1,1,0,0,0,4.79,7.79c-3.44,3.44-.92,8.71.71,8.71a1,1,0,0,0,.71-1.71A4,4,0,0,1,6.21,9.21Z"/><path d="M11.79,9.21a4,4,0,0,1,0,5.58,1,1,0,0,0,.71,1.71c1.6,0,4.19-5.23.71-8.71A1,1,0,0,0,11.79,9.21Z"/></g></svg>