<svg xmlns="http://www.w3.org/2000/svg" version="1.1" xmlns:xlink="http://www.w3.org/1999/xlink" xmlns:svgjs="http://svgjs.dev/svgjs" width="1500" height="1500" viewBox="0 0 1500 1500"><rect width="1500" height="1500" fill="#632240"></rect><g transform="matrix(0.6666666666666666,0,0,0.6666666666666666,249.78425655976667,249.78425655976673)"><svg viewBox="0 0 343 343" data-background-color="#632240" preserveAspectRatio="xMidYMid meet" height="1500" width="1500" xmlns="http://www.w3.org/2000/svg" xmlns:xlink="http://www.w3.org/1999/xlink"><g id="tight-bounds" transform="matrix(1,0,0,1,0.0740000000000407,0.07400000000001228)"><svg viewBox="0 0 342.85155851775386 342.85155851775386" height="342.85155851775386" width="342.85155851775386"><g><svg></svg></g><g><svg viewBox="0 0 342.85155851775386 342.85155851775386" height="342.85155851775386" width="342.85155851775386"><g><path d="M0 171.426c0-94.676 76.75-171.426 171.426-171.426 94.676 0 171.426 76.75 171.426 171.426 0 94.676-76.75 171.426-171.426 171.426-94.676 0-171.426-76.75-171.426-171.426zM171.426 339.396c92.767 0 167.97-75.203 167.97-167.97 0-92.767-75.203-167.97-167.97-167.97-92.767 0-167.97 75.203-167.97 167.97 0 92.767 75.203 167.97 167.97 167.97z" data-fill-palette-color="tertiary" fill="#fed8e5" stroke="transparent"></path><ellipse rx="164.56874808852186" ry="164.56874808852186" cx="171.42577925887693" cy="171.42577925887693" fill="#fed8e5" stroke="transparent" stroke-width="0" fill-opacity="1" data-fill-palette-color="tertiary"></ellipse></g><g transform="matrix(1,0,0,1,64.84655864529837,82.28819984952258)"><svg viewBox="0 0 213.1584412271571 178.2751588187087" height="178.2751588187087" width="213.1584412271571"><g><svg viewBox="0 0 213.1584412271571 178.2751588187087" height="178.2751588187087" width="213.1584412271571"><g><svg viewBox="0 0 213.1584412271571 178.2751588187087" height="178.2751588187087" width="213.1584412271571"><g transform="matrix(1,0,0,1,0,107.23018154559189)"><svg viewBox="0 0 213.1584412271571 71.04497727311681" height="71.04497727311681" width="213.1584412271571"><g id="textblocktransform"><svg viewBox="0 0 213.1584412271571 71.04497727311681" height="71.04497727311681" width="213.1584412271571" id="textblock"><g><svg viewBox="0 0 213.1584412271571 38.31826595733768" height="38.31826595733768" width="213.1584412271571"><g transform="matrix(1,0,0,1,0,0)"><svg width="213.1584412271571" viewBox="2.55 -25.5 203.57999999999998 36.6" height="38.31826595733768" data-palette-color="#632240"><path d="M12.95-25.5L12.95-25.5Q14.6-25.5 18.55-24.9L18.55-24.9 19.75-24.75 19.6-21.7Q15.6-22.15 13.7-22.15L13.7-22.15Q9.45-22.15 7.93-20.13 6.4-18.1 6.4-12.63 6.4-7.15 7.83-5 9.25-2.85 13.75-2.85L13.75-2.85 19.65-3.3 19.8-0.2Q15.15 0.5 12.85 0.5L12.85 0.5Q7 0.5 4.78-2.5 2.55-5.5 2.55-12.63 2.55-19.75 4.95-22.63 7.35-25.5 12.95-25.5ZM43.05-17.45L43.05-17.45 43.05-4.65Q43.2-2.8 45.95-2.45L45.95-2.45 45.8 0.5Q41.85 0.5 39.85-1.5L39.85-1.5Q35.35 0.5 30.85 0.5L30.85 0.5Q27.4 0.5 25.6-1.45 23.8-3.4 23.8-7.05 23.8-10.7 25.65-12.43 27.5-14.15 31.45-14.55L31.45-14.55 39.3-15.3 39.3-17.45Q39.3-20 38.2-21.1 37.1-22.2 35.2-22.2L35.2-22.2Q31.2-22.2 26.9-21.7L26.9-21.7 25.35-21.55 25.2-24.4Q30.7-25.5 34.95-25.5 39.2-25.5 41.12-23.55 43.05-21.6 43.05-17.45ZM27.65-7.25L27.65-7.25Q27.65-2.65 31.45-2.65L31.45-2.65Q34.85-2.65 38.15-3.8L38.15-3.8 39.3-4.2 39.3-12.45 31.9-11.75Q29.65-11.55 28.65-10.45 27.65-9.35 27.65-7.25ZM54.2-20.3L54.2 0 50.45 0 50.45-25 54.14-25 54.14-23.25Q57.89-25.5 61.45-25.5L61.45-25.5Q66.09-25.5 67.94-22.95L67.94-22.95Q69.59-23.95 72.22-24.73 74.84-25.5 76.84-25.5L76.84-25.5Q81.84-25.5 83.57-22.83 85.3-20.15 85.3-13.2L85.3-13.2 85.3 0 81.55 0 81.55-13.1Q81.55-18.3 80.55-20.23 79.55-22.15 76.3-22.15L76.3-22.15Q74.64-22.15 72.89-21.68 71.14-21.2 70.19-20.75L70.19-20.75 69.25-20.3Q69.89-18.65 69.89-13L69.89-13 69.89 0 66.14 0 66.14-12.9Q66.14-18.3 65.17-20.23 64.19-22.15 60.89-22.15L60.89-22.15Q59.3-22.15 57.62-21.68 55.95-21.2 55.05-20.75L55.05-20.75 54.2-20.3ZM95.99 11.1L92.24 11.1 92.24-25 95.94-25 95.94-23.2Q99.74-25.5 103.44-25.5L103.44-25.5Q108.19-25.5 110.34-22.48 112.49-19.45 112.49-12.5 112.49-5.55 109.97-2.53 107.44 0.5 101.59 0.5L101.59 0.5Q98.54 0.5 95.99-0.05L95.99-0.05 95.99 11.1ZM102.89-22.15L102.89-22.15Q101.39-22.15 99.67-21.65 97.94-21.15 96.94-20.65L96.94-20.65 95.99-20.15 95.99-3.3Q99.54-2.75 101.39-2.75L101.39-2.75Q105.44-2.75 107.07-5.05 108.69-7.35 108.69-12.55 108.69-17.75 107.22-19.95 105.74-22.15 102.89-22.15ZM134.19-4.7L134.19-25 137.94-25 137.94 0 134.19 0 134.19-1.75Q130.44 0.5 126.79 0.5L126.79 0.5Q121.69 0.5 120.02-2.15 118.34-4.8 118.34-11.95L118.34-11.95 118.34-25 122.09-25 122.09-12Q122.09-6.55 123.04-4.7 123.99-2.85 127.34-2.85L127.34-2.85Q128.99-2.85 130.69-3.33 132.39-3.8 133.29-4.25L133.29-4.25 134.19-4.7ZM152.99-22.15L152.99-22.15Q147.54-22.15 147.54-18.35L147.54-18.35Q147.54-16.6 148.79-15.88 150.04-15.15 154.49-14.38 158.94-13.6 160.79-12.2 162.64-10.8 162.64-6.95 162.64-3.1 160.16-1.3 157.69 0.5 152.94 0.5L152.94 0.5Q149.84 0.5 145.64-0.2L145.64-0.2 144.14-0.45 144.34-3.7Q150.04-2.85 152.94-2.85 155.84-2.85 157.36-3.78 158.89-4.7 158.89-6.88 158.89-9.05 157.59-9.83 156.29-10.6 151.89-11.3 147.49-12 145.64-13.35 143.79-14.7 143.79-18.35 143.79-22 146.36-23.75 148.94-25.5 152.79-25.5L152.79-25.5Q155.84-25.5 160.44-24.8L160.44-24.8 161.84-24.55 161.74-21.35Q156.19-22.15 152.99-22.15ZM182.84-12L167.69-12 167.69-15.5 182.84-15.5 182.84-12ZM193.58-12.5L185.73-25 189.83-25 195.93-15.2 202.03-25 206.13-25 198.18-12.6 206.08 0 201.98 0 195.93-9.75 189.83 0 185.73 0 193.58-12.5Z" opacity="1" transform="matrix(1,0,0,1,0,0)" fill="#632240" class="wordmark-text-0" data-fill-palette-color="quaternary" id="text-0"></path></svg></g></svg></g><g transform="matrix(1,0,0,1,0,47.364288911482134)"><svg viewBox="0 0 213.1584412271571 23.680688361634687" height="23.680688361634687" width="213.1584412271571"><g transform="matrix(1,0,0,1,0,0)"><svg width="213.1584412271571" viewBox="2.1 -36.5 333.04999999999995 37" height="23.680688361634687" data-palette-color="#632240"><path d="M2.1-18L2.1-18Q2.1-21.25 3.23-24.38 4.35-27.5 6.5-30.08 8.65-32.65 11.8-34.18 14.95-35.7 18.95-35.7L18.95-35.7Q23.7-35.7 27.08-33.52 30.45-31.35 32.05-27.95L32.05-27.95 29.3-26.25Q28.15-28.6 26.4-29.98 24.65-31.35 22.68-31.95 20.7-32.55 18.75-32.55L18.75-32.55Q15.55-32.55 13.1-31.28 10.65-30 8.97-27.88 7.3-25.75 6.45-23.13 5.6-20.5 5.6-17.8L5.6-17.8Q5.6-14.85 6.6-12.15 7.6-9.45 9.4-7.38 11.2-5.3 13.63-4.08 16.05-2.85 18.9-2.85L18.9-2.85Q20.9-2.85 23-3.55 25.1-4.25 26.93-5.7 28.75-7.15 29.85-9.45L29.85-9.45 32.75-7.95Q31.65-5.3 29.35-3.45 27.05-1.6 24.23-0.65 21.4 0.3 18.7 0.3L18.7 0.3Q15.05 0.3 12-1.28 8.95-2.85 6.73-5.48 4.5-8.1 3.3-11.38 2.1-14.65 2.1-18ZM51.53 0.5L51.53 0.5Q48.73 0.5 46.35-0.58 43.98-1.65 42.25-3.53 40.53-5.4 39.58-7.83 38.63-10.25 38.63-12.95L38.63-12.95Q38.63-15.75 39.58-18.18 40.53-20.6 42.28-22.48 44.03-24.35 46.4-25.43 48.78-26.5 51.58-26.5L51.58-26.5Q54.38-26.5 56.73-25.43 59.08-24.35 60.83-22.48 62.58-20.6 63.53-18.18 64.48-15.75 64.48-12.95L64.48-12.95Q64.48-10.25 63.53-7.83 62.58-5.4 60.85-3.53 59.13-1.65 56.75-0.58 54.38 0.5 51.53 0.5ZM42.08-12.9L42.08-12.9Q42.08-10 43.35-7.63 44.63-5.25 46.78-3.88 48.93-2.5 51.53-2.5L51.53-2.5Q54.13-2.5 56.28-3.9 58.43-5.3 59.73-7.73 61.03-10.15 61.03-13L61.03-13Q61.03-15.9 59.73-18.3 58.43-20.7 56.28-22.1 54.13-23.5 51.53-23.5L51.53-23.5Q48.93-23.5 46.8-22.05 44.68-20.6 43.38-18.23 42.08-15.85 42.08-12.9ZM72.7-4.75L72.7-36.5 76.1-36.5 76.1-5.9Q76.1-3.95 76.8-3.35 77.5-2.75 78.5-2.75L78.5-2.75Q79.4-2.75 80.3-2.95 81.2-3.15 81.85-3.35L81.85-3.35 82.45-0.6Q81.5-0.2 80.13 0.05 78.75 0.3 77.75 0.3L77.75 0.3Q75.45 0.3 74.08-1.05 72.7-2.4 72.7-4.75L72.7-4.75ZM88.68-4.75L88.68-36.5 92.08-36.5 92.08-5.9Q92.08-3.95 92.78-3.35 93.48-2.75 94.48-2.75L94.48-2.75Q95.38-2.75 96.28-2.95 97.18-3.15 97.83-3.35L97.83-3.35 98.43-0.6Q97.48-0.2 96.1 0.05 94.73 0.3 93.73 0.3L93.73 0.3Q91.43 0.3 90.05-1.05 88.68-2.4 88.68-4.75L88.68-4.75ZM102.4-7.5L102.4-7.5Q102.4-9.95 103.8-11.73 105.2-13.5 107.68-14.48 110.15-15.45 113.4-15.45L113.4-15.45Q115.3-15.45 117.35-15.15 119.4-14.85 121-14.25L121-14.25 121-16.45Q121-19.75 119.05-21.7 117.1-23.65 113.65-23.65L113.65-23.65Q111.55-23.65 109.53-22.88 107.5-22.1 105.3-20.6L105.3-20.6 104-23Q106.55-24.75 109-25.63 111.45-26.5 114-26.5L114-26.5Q118.8-26.5 121.6-23.75 124.4-21 124.4-16.15L124.4-16.15 124.4-4.1Q124.4-3.4 124.7-3.08 125-2.75 125.65-2.7L125.65-2.7 125.65 0Q125.1 0.05 124.7 0.1 124.3 0.15 124.1 0.1L124.1 0.1Q122.85 0.05 122.2-0.7 121.55-1.45 121.5-2.3L121.5-2.3 121.45-4.2Q119.7-1.95 116.9-0.73 114.1 0.5 111.2 0.5L111.2 0.5Q108.7 0.5 106.68-0.58 104.65-1.65 103.53-3.48 102.4-5.3 102.4-7.5ZM119.85-5.5L119.85-5.5Q120.4-6.2 120.7-6.85 121-7.5 121-8L121-8 121-11.8Q119.3-12.45 117.48-12.8 115.65-13.15 113.8-13.15L113.8-13.15Q110.15-13.15 107.9-11.7 105.65-10.25 105.65-7.75L105.65-7.75Q105.65-6.3 106.4-5.03 107.15-3.75 108.6-2.93 110.05-2.1 112-2.1L112-2.1Q114.45-2.1 116.58-3.05 118.7-4 119.85-5.5ZM146.88 0.5L146.88 0.5Q143.83 0.5 141.23-1.07 138.63-2.65 137.18-5.05L137.18-5.05 137.18 0 134.13 0 134.13-36.5 137.53-36.5 137.53-20.6Q139.28-23.25 141.73-24.88 144.18-26.5 147.43-26.5L147.43-26.5Q150.18-26.5 152.35-25.35 154.53-24.2 156.08-22.28 157.63-20.35 158.43-17.93 159.23-15.5 159.23-12.95L159.23-12.95Q159.23-10.2 158.3-7.8 157.38-5.4 155.68-3.53 153.98-1.65 151.75-0.58 149.53 0.5 146.88 0.5ZM146.08-2.5L146.08-2.5Q148.18-2.5 149.98-3.35 151.78-4.2 153.08-5.7 154.38-7.2 155.08-9.08 155.78-10.95 155.78-12.95L155.78-12.95Q155.78-15.7 154.6-18.13 153.43-20.55 151.35-22.03 149.28-23.5 146.48-23.5L146.48-23.5Q144.48-23.5 142.75-22.6 141.03-21.7 139.7-20.23 138.38-18.75 137.53-17L137.53-17 137.53-8.9Q137.73-7.55 138.58-6.38 139.43-5.2 140.7-4.35 141.98-3.5 143.38-3 144.78-2.5 146.08-2.5ZM178.45 0.5L178.45 0.5Q175.65 0.5 173.28-0.58 170.9-1.65 169.18-3.53 167.45-5.4 166.5-7.83 165.55-10.25 165.55-12.95L165.55-12.95Q165.55-15.75 166.5-18.18 167.45-20.6 169.2-22.48 170.95-24.35 173.33-25.43 175.7-26.5 178.5-26.5L178.5-26.5Q181.3-26.5 183.65-25.43 186-24.35 187.75-22.48 189.5-20.6 190.45-18.18 191.4-15.75 191.4-12.95L191.4-12.95Q191.4-10.25 190.45-7.83 189.5-5.4 187.78-3.53 186.05-1.65 183.68-0.58 181.3 0.5 178.45 0.5ZM169-12.9L169-12.9Q169-10 170.28-7.63 171.55-5.25 173.7-3.88 175.85-2.5 178.45-2.5L178.45-2.5Q181.05-2.5 183.2-3.9 185.35-5.3 186.65-7.73 187.95-10.15 187.95-13L187.95-13Q187.95-15.9 186.65-18.3 185.35-20.7 183.2-22.1 181.05-23.5 178.45-23.5L178.45-23.5Q175.85-23.5 173.73-22.05 171.6-20.6 170.3-18.23 169-15.85 169-12.9ZM212.48-26.15L212.48-23.05Q209.08-22.95 206.5-21.15 203.93-19.35 202.88-16.2L202.88-16.2 202.88 0 199.48 0 199.48-26.05 202.68-26.05 202.68-19.8Q204.03-22.55 206.25-24.25 208.48-25.95 210.98-26.15L210.98-26.15Q211.48-26.2 211.85-26.2 212.23-26.2 212.48-26.15L212.48-26.15ZM217.2-7.5L217.2-7.5Q217.2-9.95 218.6-11.73 220-13.5 222.48-14.48 224.95-15.45 228.2-15.45L228.2-15.45Q230.1-15.45 232.15-15.15 234.2-14.85 235.8-14.25L235.8-14.25 235.8-16.45Q235.8-19.75 233.85-21.7 231.9-23.65 228.45-23.65L228.45-23.65Q226.35-23.65 224.33-22.88 222.3-22.1 220.1-20.6L220.1-20.6 218.8-23Q221.35-24.75 223.8-25.63 226.25-26.5 228.8-26.5L228.8-26.5Q233.6-26.5 236.4-23.75 239.2-21 239.2-16.15L239.2-16.15 239.2-4.1Q239.2-3.4 239.5-3.08 239.8-2.75 240.45-2.7L240.45-2.7 240.45 0Q239.9 0.05 239.5 0.1 239.1 0.15 238.9 0.1L238.9 0.1Q237.65 0.05 237-0.7 236.35-1.45 236.3-2.3L236.3-2.3 236.25-4.2Q234.5-1.95 231.7-0.73 228.9 0.5 226 0.5L226 0.5Q223.5 0.5 221.48-0.58 219.45-1.65 218.33-3.48 217.2-5.3 217.2-7.5ZM234.65-5.5L234.65-5.5Q235.2-6.2 235.5-6.85 235.8-7.5 235.8-8L235.8-8 235.8-11.8Q234.1-12.45 232.28-12.8 230.45-13.15 228.6-13.15L228.6-13.15Q224.95-13.15 222.7-11.7 220.45-10.25 220.45-7.75L220.45-7.75Q220.45-6.3 221.2-5.03 221.95-3.75 223.4-2.93 224.85-2.1 226.8-2.1L226.8-2.1Q229.25-2.1 231.38-3.05 233.5-4 234.65-5.5ZM260.33-4L261.23-1.25Q260.83-1.1 259.98-0.7 259.13-0.3 257.93 0 256.73 0.3 255.33 0.3L255.33 0.3Q253.88 0.3 252.6-0.25 251.33-0.8 250.58-1.93 249.83-3.05 249.83-4.7L249.83-4.7 249.83-23.35 246.23-23.35 246.23-26.05 249.83-26.05 249.83-34.85 253.23-34.85 253.23-26.05 259.23-26.05 259.23-23.35 253.23-23.35 253.23-5.65Q253.33-4.25 254.25-3.55 255.18-2.85 256.38-2.85L256.38-2.85Q257.78-2.85 258.93-3.33 260.08-3.8 260.33-4L260.33-4ZM271.25 0L267.85 0 267.85-26.05 271.25-26.05 271.25 0ZM271.25-31.5L267.85-31.5 267.85-36.5 271.25-36.5 271.25-31.5ZM292.23 0.5L292.23 0.5Q289.43 0.5 287.05-0.58 284.68-1.65 282.95-3.53 281.23-5.4 280.28-7.83 279.33-10.25 279.33-12.95L279.33-12.95Q279.33-15.75 280.28-18.18 281.23-20.6 282.98-22.48 284.73-24.35 287.1-25.43 289.48-26.5 292.28-26.5L292.28-26.5Q295.08-26.5 297.43-25.43 299.78-24.35 301.53-22.48 303.28-20.6 304.23-18.18 305.18-15.75 305.18-12.95L305.18-12.95Q305.18-10.25 304.23-7.83 303.28-5.4 301.55-3.53 299.83-1.65 297.45-0.58 295.08 0.5 292.23 0.5ZM282.78-12.9L282.78-12.9Q282.78-10 284.05-7.63 285.33-5.25 287.48-3.88 289.63-2.5 292.23-2.5L292.23-2.5Q294.83-2.5 296.98-3.9 299.13-5.3 300.43-7.73 301.73-10.15 301.73-13L301.73-13Q301.73-15.9 300.43-18.3 299.13-20.7 296.98-22.1 294.83-23.5 292.23-23.5L292.23-23.5Q289.63-23.5 287.5-22.05 285.38-20.6 284.08-18.23 282.78-15.85 282.78-12.9ZM335.15-15.25L335.15 0 331.75 0 331.75-14.55Q331.75-19.15 330.4-21.28 329.05-23.4 326.15-23.4L326.15-23.4Q324.15-23.4 322.2-22.43 320.25-21.45 318.78-19.78 317.3-18.1 316.65-15.95L316.65-15.95 316.65 0 313.25 0 313.25-26.05 316.35-26.05 316.35-20.15Q317.4-22.05 319.1-23.48 320.8-24.9 322.95-25.7 325.1-26.5 327.4-26.5L327.4-26.5Q329.55-26.5 331.05-25.7 332.55-24.9 333.45-23.43 334.35-21.95 334.75-19.88 335.15-17.8 335.15-15.25L335.15-15.25Z" opacity="1" transform="matrix(1,0,0,1,0,0)" fill="#632240" class="slogan-text-1" data-fill-palette-color="quaternary" id="text-1"></path></svg></g></svg></g></svg></g></svg></g><g transform="matrix(1,0,0,1,71.83895984517858,0)"><svg viewBox="0 0 69.48052153679994 98.18415859144744" height="98.18415859144744" width="69.48052153679994"><g><svg xmlns="http://www.w3.org/2000/svg" xmlns:xlink="http://www.w3.org/1999/xlink" version="1.1" x="0" y="0" viewBox="31.025000000000002 15.097999999999999 81.95 115.80500000000002" enable-background="new 0 0 144.083 144" xml:space="preserve" height="98.18415859144744" width="69.48052153679994" class="icon-icon-0" data-fill-palette-color="quaternary" id="icon-0"><path d="M105.223 45.403h-1.762c-3.057-17.285-16-30.305-31.461-30.305-15.461 0-28.404 13.02-31.461 30.305h-1.762c-4.275 0-7.752 3.478-7.752 7.753v12.16c0 4.274 3.477 7.753 7.752 7.753h6.043c3.502 6.226 8.668 11.037 14.914 13.771v1.7c-10 3.688-24.568 13.238-24.568 25.179v14.246h3V113.72c0-9.729 12.531-18.389 21.568-22.016v1.412c0 6.764 5.502 12.266 12.266 12.266 6.764 0 12.268-5.502 12.268-12.266v-1.411c9.037 3.628 21.568 12.286 21.568 22.015v14.246h3V113.72c0-11.939-14.568-21.489-24.568-25.179v-1.7c6.246-2.734 11.412-7.546 14.912-13.771h6.043c4.275 0 7.752-3.479 7.752-7.753v-12.16C112.975 48.881 109.499 45.403 105.223 45.403zM72 18.099c13.743 0 25.286 11.529 28.346 26.984-6.646-0.775-10.305-4.657-11.707-12.313-0.107-0.586-0.553-1.054-1.133-1.189-0.58-0.137-1.186 0.083-1.543 0.561-2.678 3.571-6.902 5.096-14.129 5.096-5.262 0-10.584-0.576-13.873-4.754-0.363-0.459-0.957-0.667-1.525-0.531s-1.008 0.588-1.123 1.16c-1.512 7.428-5.154 11.203-11.658 11.971C46.717 29.627 58.26 18.099 72 18.099zM38.777 70.069c-2.621 0-4.752-2.133-4.752-4.753v-12.16c0-2.621 2.131-4.753 4.752-4.753h1.344c-0.17 1.587-0.268 3.201-0.268 4.843 0 6.155 1.24 11.852 3.461 16.823H38.777zM81.268 93.116c0 5.109-4.158 9.266-9.268 9.266-5.109 0-9.266-4.156-9.266-9.266v-5.149c2.914 0.918 6.018 1.415 9.266 1.415 3.25 0 6.354-0.497 9.268-1.415V93.116zM72 86.382c-16.617 0-29.146-14.245-29.146-33.136 0-1.734 0.109-3.438 0.311-5.106 7.441-0.612 12.191-4.474 14.416-11.761 4.014 3.351 9.379 3.858 14.254 3.858 4.682 0 10.344-0.52 14.506-4.121 2.141 7.46 6.918 11.408 14.498 12.024 0.201 1.668 0.311 3.371 0.311 5.105C101.149 72.137 88.618 86.382 72 86.382zM109.975 65.316c0 2.62-2.131 4.753-4.752 4.753h-4.535c2.219-4.972 3.461-10.668 3.461-16.823 0-1.642-0.098-3.256-0.27-4.843h1.344c2.621 0 4.752 2.132 4.752 4.753V65.316z" fill="#632240" data-fill-palette-color="quaternary"></path><path d="M72 76.524c-2.844 0-5.156-1.965-5.156-4.381h-3c0 4.07 3.658 7.381 8.156 7.381 4.499 0 8.159-3.311 8.159-7.381h-3C77.159 74.56 74.844 76.524 72 76.524z" fill="#632240" data-fill-palette-color="quaternary"></path><path d="M75.844 56.253h-7.688V50.07H49.611v14.999h18.545v-5.816h7.688v5.816h18.545V50.07H75.844V56.253zM65.156 62.069H52.611V53.07h12.545V62.069zM78.844 53.07h12.545v8.999H78.844V53.07z" fill="#632240" data-fill-palette-color="quaternary"></path><path d="M91.258 107.503H52.744c-3.326 0-6.031 2.706-6.031 6.031v17.369h3v-17.369c0-1.672 1.359-3.031 3.031-3.031h38.514c1.672 0 3.031 1.359 3.031 3.031v17.369h3v-17.369C97.29 110.209 94.584 107.503 91.258 107.503z" fill="#632240" data-fill-palette-color="quaternary"></path><rect x="68" y="121.735" width="8.002" height="3" fill="#632240" data-fill-palette-color="quaternary"></rect></svg></g></svg></g><g></g></svg></g></svg></g></svg></g></svg></g><defs></defs></svg><rect width="342.85155851775386" height="342.85155851775386" fill="none" stroke="none" visibility="hidden"></rect></g></svg></g></svg>